<?xml version="1.0" encoding="UTF-8" standalone="no"?>
<!DOCTYPE svg PUBLIC "-//W3C//DTD SVG 1.1//EN"
 "http://www.w3.org/Graphics/SVG/1.1/DTD/svg11.dtd">
<!-- Generated by graphviz version 2.40.1 (20161225.0304)
 -->
<!-- Title: G Pages: 1 -->
<svg width="824pt" height="725pt"
 viewBox="0.00 0.00 823.71 725.00" xmlns="http://www.w3.org/2000/svg" xmlns:xlink="http://www.w3.org/1999/xlink">
<g id="graph0" class="graph" transform="scale(1 1) rotate(0) translate(4 721)">
<title>G</title>
<polygon fill="#ffffff" stroke="transparent" points="-4,4 -4,-721 819.7097,-721 819.7097,4 -4,4"/>
<g id="clust1" class="cluster">
<title>cluster_Global</title>
<path fill="none" stroke="#c0c0c0" d="M243.5433,-152C243.5433,-152 795.7097,-152 795.7097,-152 801.7097,-152 807.7097,-158 807.7097,-164 807.7097,-164 807.7097,-697 807.7097,-697 807.7097,-703 801.7097,-709 795.7097,-709 795.7097,-709 243.5433,-709 243.5433,-709 237.5433,-709 231.5433,-703 231.5433,-697 231.5433,-697 231.5433,-164 231.5433,-164 231.5433,-158 237.5433,-152 243.5433,-152"/>
<text text-anchor="middle" x="519.6265" y="-696.2" font-family="Times,serif" font-size="11.00" fill="#c0c0c0">Global</text>
</g>
<!-- \\Swift_Response_AWSResponse -->
<g id="node1" class="node">
<title>\\Swift_Response_AWSResponse</title>
<polygon fill="none" stroke="#000000" points="763.2182,-682 575.9616,-682 575.9616,-646 763.2182,-646 763.2182,-682"/>
<text text-anchor="middle" x="669.5899" y="-660.7" font-family="Courier,monospace" font-size="11.00" fill="#000000">Swift_Response_AWSResponse</text>
</g>
<!-- \\Swift_Events_ResponseReceivedListener -->
<g id="node2" class="node">
<title>\\Swift_Events_ResponseReceivedListener</title>
<polygon fill="none" stroke="#000000" points="799.8297,-574 539.35,-574 539.35,-538 799.8297,-538 799.8297,-574"/>
<text text-anchor="middle" x="669.5899" y="-552.7" font-family="Courier,monospace" font-size="11.00" fill="#000000">Swift_Events_ResponseReceivedListener</text>
</g>
<!-- \\Swift_Events_ResponseListener -->
<g id="node12" class="node">
<title>\\Swift_Events_ResponseListener</title>
<ellipse fill="none" stroke="#000000" cx="339.9584" cy="-126" rx="127.5232" ry="18"/>
<text text-anchor="middle" x="339.9584" y="-121.8" font-family="Times,serif" font-size="14.00" fill="#c0c0c0">\Swift_Events_ResponseListener</text>
</g>
<!-- \\Swift_Events_ResponseReceivedListener&#45;&gt;\\Swift_Events_ResponseListener -->
<g id="edge1" class="edge">
<title>\\Swift_Events_ResponseReceivedListener&#45;&gt;\\Swift_Events_ResponseListener</title>
<path fill="none" stroke="#000000" stroke-dasharray="1,5" d="M549.9727,-537.8611C546.2261,-535.2339 542.7036,-532.2917 539.47,-529 418.7048,-406.0629 590.2923,-268.882 467.47,-148 464.7056,-145.2793 461.7341,-142.8255 458.596,-140.6151"/>
<polygon fill="none" stroke="#000000" points="460.2855,-137.5457 449.928,-135.3158 456.6342,-143.518 460.2855,-137.5457"/>
</g>
<!-- \\Swift_AWSTransport -->
<g id="node3" class="node">
<title>\\Swift_AWSTransport</title>
<polygon fill="none" stroke="#000000" points="736.9093,-628 602.2704,-628 602.2704,-592 736.9093,-592 736.9093,-628"/>
<text text-anchor="middle" x="669.5899" y="-606.7" font-family="Courier,monospace" font-size="11.00" fill="#000000">Swift_AWSTransport</text>
</g>
<!-- \\Swift_Transport_AWSTransport -->
<g id="node10" class="node">
<title>\\Swift_Transport_AWSTransport</title>
<polygon fill="none" stroke="#000000" points="440.2885,-628 239.6282,-628 239.6282,-592 440.2885,-592 440.2885,-628"/>
<text text-anchor="start" x="306.953" y="-612.2" font-family="Courier,monospace" font-size="11.00" fill="#000000">«abstract»</text>
<text text-anchor="start" x="247.5433" y="-601.2" font-family="Courier,monospace" font-size="11.00" fill="#000000">Swift_Transport_AWSTransport</text>
</g>
<!-- \\Swift_AWSTransport&#45;&gt;\\Swift_Transport_AWSTransport -->
<g id="edge2" class="edge">
<title>\\Swift_AWSTransport&#45;&gt;\\Swift_Transport_AWSTransport</title>
<path fill="none" stroke="#000000" d="M602.0886,-610C558.5634,-610 500.9313,-610 450.792,-610"/>
<polygon fill="none" stroke="#000000" points="450.5429,-606.5001 440.5429,-610 450.5429,-613.5001 450.5429,-606.5001"/>
</g>
<!-- \\ChunkedTransferSocket -->
<g id="node4" class="node">
<title>\\ChunkedTransferSocket</title>
<polygon fill="none" stroke="#000000" points="746.7129,-520 592.4668,-520 592.4668,-484 746.7129,-484 746.7129,-520"/>
<text text-anchor="middle" x="669.5899" y="-498.7" font-family="Courier,monospace" font-size="11.00" fill="#000000">ChunkedTransferSocket</text>
</g>
<!-- \\AWSResponse -->
<g id="node5" class="node">
<title>\\AWSResponse</title>
<polygon fill="none" stroke="#000000" points="713.7025,-466 625.4772,-466 625.4772,-430 713.7025,-430 713.7025,-466"/>
<text text-anchor="middle" x="669.5899" y="-444.7" font-family="Courier,monospace" font-size="11.00" fill="#000000">AWSResponse</text>
</g>
<!-- \\AWSConnectionError -->
<g id="node6" class="node">
<title>\\AWSConnectionError</title>
<polygon fill="none" stroke="#000000" points="736.9093,-412 602.2704,-412 602.2704,-376 736.9093,-376 736.9093,-412"/>
<text text-anchor="middle" x="669.5899" y="-390.7" font-family="Courier,monospace" font-size="11.00" fill="#000000">AWSConnectionError</text>
</g>
<!-- \\Exception -->
<g id="node13" class="node">
<title>\\Exception</title>
<ellipse fill="none" stroke="#000000" cx="339.9584" cy="-72" rx="48.3341" ry="18"/>
<text text-anchor="middle" x="339.9584" y="-67.8" font-family="Times,serif" font-size="14.00" fill="#c0c0c0">\Exception</text>
</g>
<!-- \\AWSConnectionError&#45;&gt;\\Exception -->
<g id="edge3" class="edge">
<title>\\AWSConnectionError&#45;&gt;\\Exception</title>
<path fill="none" stroke="#000000" d="M602.2148,-393.7816C579.7742,-390.4191 556.2491,-382.8352 539.47,-367 449.7729,-282.3484 556.9948,-183.8338 467.47,-99 449.1457,-81.6359 422.5763,-74.2783 398.4281,-71.5035"/>
<polygon fill="none" stroke="#000000" points="398.5341,-67.9988 388.2583,-70.5791 397.9003,-74.9701 398.5341,-67.9988"/>
</g>
<!-- \\InvalidOperationException -->
<g id="node7" class="node">
<title>\\InvalidOperationException</title>
<polygon fill="none" stroke="#000000" points="760.1167,-358 579.063,-358 579.063,-322 760.1167,-322 760.1167,-358"/>
<text text-anchor="middle" x="669.5899" y="-336.7" font-family="Courier,monospace" font-size="11.00" fill="#000000">InvalidOperationException</text>
</g>
<!-- \\InvalidOperationException&#45;&gt;\\Exception -->
<g id="edge4" class="edge">
<title>\\InvalidOperationException&#45;&gt;\\Exception</title>
<path fill="none" stroke="#000000" d="M578.7793,-333.852C564.3881,-329.4847 550.6043,-322.8729 539.47,-313 464.3861,-246.4227 542.4184,-165.7298 467.47,-99 448.7634,-82.3447 422.3954,-75.0445 398.4883,-72.1232"/>
<polygon fill="none" stroke="#000000" points="398.7193,-68.629 388.4226,-71.1248 398.0283,-75.5948 398.7193,-68.629"/>
</g>
<!-- \\InvalidHeaderException -->
<g id="node8" class="node">
<title>\\InvalidHeaderException</title>
<polygon fill="none" stroke="#000000" points="750.3137,-304 588.8661,-304 588.8661,-268 750.3137,-268 750.3137,-304"/>
<text text-anchor="middle" x="669.5899" y="-282.7" font-family="Courier,monospace" font-size="11.00" fill="#000000">InvalidHeaderException</text>
</g>
<!-- \\InvalidHeaderException&#45;&gt;\\Exception -->
<g id="edge5" class="edge">
<title>\\InvalidHeaderException&#45;&gt;\\Exception</title>
<path fill="none" stroke="#000000" d="M588.704,-281.3283C571.0672,-277.1696 553.5051,-270.2633 539.47,-259 478.6529,-210.1936 528.1878,-147.9299 467.47,-99 448.285,-83.5396 422.3517,-76.3464 398.8816,-73.1846"/>
<polygon fill="none" stroke="#000000" points="398.9829,-69.6739 388.6538,-72.032 398.1989,-76.6299 398.9829,-69.6739"/>
</g>
<!-- \\AWSEmptyResponseException -->
<g id="node9" class="node">
<title>\\AWSEmptyResponseException</title>
<polygon fill="none" stroke="#000000" points="760.1167,-250 579.063,-250 579.063,-214 760.1167,-214 760.1167,-250"/>
<text text-anchor="middle" x="669.5899" y="-228.7" font-family="Courier,monospace" font-size="11.00" fill="#000000">AWSEmptyResponseException</text>
</g>
<!-- \\AWSEmptyResponseException&#45;&gt;\\Exception -->
<g id="edge6" class="edge">
<title>\\AWSEmptyResponseException&#45;&gt;\\Exception</title>
<path fill="none" stroke="#000000" d="M578.8166,-222.5837C564.9027,-218.5423 551.2652,-212.8867 539.47,-205 492.1267,-173.3445 514.7488,-130.7517 467.47,-99 447.261,-85.4279 421.5188,-78.4946 398.4628,-75.0172"/>
<polygon fill="none" stroke="#000000" points="398.8029,-71.5318 388.4303,-73.6902 397.8849,-78.4714 398.8029,-71.5318"/>
</g>
<!-- \\Swift_Transport -->
<g id="node14" class="node">
<title>\\Swift_Transport</title>
<ellipse fill="none" stroke="#000000" cx="70.2234" cy="-610" rx="70.4475" ry="18"/>
<text text-anchor="middle" x="70.2234" y="-605.8" font-family="Times,serif" font-size="14.00" fill="#c0c0c0">\Swift_Transport</text>
</g>
<!-- \\Swift_Transport_AWSTransport&#45;&gt;\\Swift_Transport -->
<g id="edge7" class="edge">
<title>\\Swift_Transport_AWSTransport&#45;&gt;\\Swift_Transport</title>
<path fill="none" stroke="#000000" stroke-dasharray="1,5" d="M239.519,-610C210.1707,-610 178.4913,-610 150.5632,-610"/>
<polygon fill="none" stroke="#000000" points="150.4549,-606.5001 140.4549,-610 150.4548,-613.5001 150.4549,-606.5001"/>
</g>
<!-- \\Swift_AWSInputByteStream -->
<g id="node11" class="node">
<title>\\Swift_AWSInputByteStream</title>
<polygon fill="none" stroke="#000000" points="757.0162,-196 582.1636,-196 582.1636,-160 757.0162,-160 757.0162,-196"/>
<text text-anchor="middle" x="669.5899" y="-174.7" font-family="Courier,monospace" font-size="11.00" fill="#000000">Swift_AWSInputByteStream</text>
</g>
<!-- \\Swift_InputByteStream -->
<g id="node15" class="node">
<title>\\Swift_InputByteStream</title>
<ellipse fill="none" stroke="#000000" cx="339.9584" cy="-18" rx="96.6363" ry="18"/>
<text text-anchor="middle" x="339.9584" y="-13.8" font-family="Times,serif" font-size="14.00" fill="#c0c0c0">\Swift_InputByteStream</text>
</g>
<!-- \\Swift_AWSInputByteStream&#45;&gt;\\Swift_InputByteStream -->
<g id="edge8" class="edge">
<title>\\Swift_AWSInputByteStream&#45;&gt;\\Swift_InputByteStream</title>
<path fill="none" stroke="#000000" stroke-dasharray="1,5" d="M648.122,-159.8897C612.8039,-131.0572 539.1869,-74.9274 467.47,-45 454.3203,-39.5126 439.9247,-35.0912 425.6919,-31.5433"/>
<polygon fill="none" stroke="#000000" points="426.4186,-28.1187 415.8816,-29.2242 424.8082,-34.9309 426.4186,-28.1187"/>
</g>
</g>
</svg>
